<?xml version="1.0" encoding="utf-8" ?>
<svg xmlns="http://www.w3.org/2000/svg" xmlns:xlink="http://www.w3.org/1999/xlink" width="28.3682" height="36.1052" viewBox="0 0 28.3682 36.1052">
	<path d="M27.0789 0L1.28947 0C0.576232 0 0 0.576232 0 1.28947L0 34.8157C0 35.5289 0.576232 36.1052 1.28947 36.1052L27.0789 36.1052C27.7921 36.1052 28.3683 35.5289 28.3683 34.8157L28.3683 1.28947C28.3683 0.576232 27.7921 0 27.0789 0ZM16.6019 2.90131L20.4703 2.90131L20.4703 11.3594L18.5966 9.99339L16.6019 11.4199L16.6019 2.90131ZM25.467 33.2038L2.90131 33.2038L2.90131 2.90131L14.1842 2.90131L14.1842 14.8652C14.1842 14.9981 14.2245 15.1311 14.3051 15.2399C14.408 15.3854 14.5474 15.4728 14.7232 15.502C14.8991 15.5311 15.0592 15.4935 15.2037 15.389L18.5805 12.9753L21.8605 15.3689C21.9693 15.4495 22.1023 15.4938 22.2393 15.4938C22.5939 15.4938 22.8841 15.2037 22.8841 14.849L22.8841 2.90131L25.463 2.90131L25.463 33.2038L25.467 33.2038Z" fill-rule="nonzero" transform="matrix(1 0 0 1 -4.76837e-07 0)" fill="rgb(0, 0, 0)" fill-opacity="0.8784"/>
</svg>
