<?xml version="1.0" encoding="utf-8" ?>
<svg xmlns="http://www.w3.org/2000/svg" xmlns:xlink="http://www.w3.org/1999/xlink" width="36.1052" height="36.1051" viewBox="0 0 36.1052 36.1051">
	<defs>
		<clipPath id="clipPath3801443447">
			<path d="M0 0L36.1052 0L36.1052 36.1052L0 36.1052L0 0Z" fill-rule="nonzero" transform="matrix(1 0 0 1 0 0)"/>
		</clipPath>
	</defs>
	<g clip-path="url(#clipPath3801443447)">
		<path d="M31.8499 29.6941C31.858 29.682 31.8701 29.6699 31.8781 29.6578C34.5175 26.5187 36.1052 22.473 36.1052 18.0526C36.1052 13.6321 34.5175 9.5864 31.8821 6.44735C31.8741 6.43526 31.862 6.4272 31.8539 6.41511C31.8096 6.36273 31.7693 6.31437 31.725 6.26602C31.7089 6.24587 31.6927 6.22975 31.6766 6.2096L31.5114 6.02021L31.5074 6.01618C31.4469 5.94768 31.3825 5.87918 31.322 5.81067L31.318 5.80664C31.1891 5.66964 31.0601 5.53263 30.9271 5.39965L30.9231 5.39562L30.7297 5.2022L30.7176 5.19011C30.6571 5.12967 30.5967 5.07326 30.5363 5.01684C30.5161 4.99669 30.496 4.97655 30.4718 4.9564C30.4315 4.9161 30.3912 4.87984 30.3509 4.84357C30.3388 4.83148 30.3227 4.81939 30.3106 4.80327C27.095 1.82138 22.7873 0 18.0526 0C13.3178 0 9.01017 1.82138 5.79053 4.80327C5.77844 4.81536 5.76232 4.82745 5.75023 4.84357C5.70993 4.87984 5.66964 4.92013 5.62934 4.96043C5.60919 4.98058 5.58905 5.00072 5.56487 5.02087C5.50442 5.07729 5.44398 5.13773 5.38354 5.19415L5.37145 5.20623L5.17803 5.39965L5.174 5.40368C5.04102 5.53666 4.91207 5.67367 4.78313 5.81067L4.7791 5.8147C4.71462 5.88321 4.65418 5.95171 4.59374 6.02021L4.58971 6.02424C4.53329 6.08469 4.47688 6.14916 4.42449 6.21363C4.40837 6.23378 4.39225 6.2499 4.37614 6.27005C4.33181 6.3184 4.29152 6.37079 4.24719 6.41914C4.23913 6.43123 4.22704 6.43929 4.21898 6.45138C1.58766 9.5864 0 13.6321 0 18.0526C0 22.473 1.58766 26.5187 4.22301 29.6578C4.23107 29.6699 4.24316 29.682 4.25122 29.6941L4.37614 29.8432C4.39226 29.8633 4.40838 29.8794 4.42449 29.8996L4.58971 30.089C4.58971 30.093 4.59374 30.093 4.59374 30.097C4.65418 30.1655 4.71462 30.234 4.7791 30.2985L4.78313 30.3025C4.91207 30.4395 5.04102 30.5766 5.16997 30.7095L5.174 30.7136C5.23847 30.778 5.29892 30.8425 5.36339 30.9029L5.37548 30.915C5.50845 31.048 5.64546 31.177 5.78247 31.3019C9.01017 34.2838 13.3178 36.1052 18.0526 36.1052C22.7873 36.1052 27.095 34.2838 30.3146 31.3019C30.3833 31.239 30.4512 31.1753 30.5183 31.1108C30.5855 31.0463 30.6519 30.9811 30.7176 30.915L30.7297 30.9029C30.7941 30.8385 30.8586 30.778 30.9191 30.7136L30.9231 30.7095C31.0561 30.5766 31.185 30.4395 31.3099 30.3025L31.314 30.2985C31.3744 30.23 31.4389 30.1655 31.4993 30.097C31.4993 30.093 31.5034 30.093 31.5034 30.089C31.5598 30.0285 31.6162 29.9641 31.6686 29.8996C31.6847 29.8794 31.7008 29.8633 31.7169 29.8432C31.7397 29.8189 31.7622 29.7943 31.7843 29.7695C31.8065 29.7446 31.8284 29.7195 31.8499 29.6941ZM32.0151 23.9479C31.459 25.2615 30.7256 26.4785 29.8311 27.5826C29.3273 27.1472 28.8009 26.7412 28.2519 26.3646C27.7028 25.9881 27.1345 25.6432 26.547 25.33C27.0144 23.4401 27.3045 21.3649 27.3811 19.1809L33.1635 19.1809C33.0427 20.829 32.6558 22.4287 32.0151 23.9479ZM33.1635 16.9243L27.3811 16.9243C27.3045 14.7402 27.0144 12.665 26.547 10.7751C27.7276 10.1465 28.8277 9.38895 29.8311 8.52259C30.8034 9.71933 31.5737 11.0343 32.1423 12.4676C32.7108 13.9009 33.0512 15.3865 33.1635 16.9243ZM23.9479 4.09004C25.5476 4.76701 27.0023 5.70187 28.2837 6.87851C27.9115 7.19543 27.5255 7.49455 27.1257 7.77587C26.726 8.0572 26.3141 8.31954 25.8901 8.56289C25.2575 6.74957 24.4475 5.174 23.5046 3.91273C23.6537 3.96915 23.8028 4.02959 23.9479 4.09004ZM20.2971 32.3214C19.9263 32.6115 19.5556 32.8331 19.1809 32.9822L19.1809 25.5073C19.9803 25.5631 20.7708 25.6795 21.5525 25.8565C22.3341 26.0335 23.0976 26.269 23.8431 26.5631C23.5086 27.5544 23.1218 28.4691 22.6745 29.2951C21.9734 30.6007 21.1513 31.6444 20.2971 32.3214ZM22.6745 6.81001C23.1178 7.64011 23.5086 8.55482 23.8431 9.54208C23.0976 9.83615 22.3341 10.0717 21.5525 10.2487C20.7708 10.4257 19.9803 10.5421 19.1809 10.5978L19.1809 3.12696C19.5516 3.27606 19.9263 3.49366 20.2971 3.78782C21.1513 4.46076 21.9734 5.50442 22.6745 6.81001ZM19.1809 23.2467L19.1809 19.1809L25.1245 19.1809C25.06 20.9619 24.8384 22.6906 24.4677 24.3307L24.4556 24.379C23.6101 24.0584 22.7452 23.8032 21.8611 23.6134C20.9769 23.4236 20.0835 23.3014 19.1809 23.2467ZM19.1809 16.9243L19.1809 12.8584C21.0264 12.7456 22.7994 12.3547 24.4556 11.7261L24.4677 11.7745C24.8384 13.4145 25.06 15.1392 25.1245 16.9243L19.1809 16.9243ZM16.9243 19.1809L16.9243 23.2467C15.0787 23.3596 13.3057 23.7504 11.6496 24.379L11.6375 24.3307C11.2667 22.6906 11.0451 20.966 10.9806 19.1809L16.9243 19.1809ZM10.9806 16.9243C11.0451 15.1432 11.2667 13.4145 11.6375 11.7745L11.6496 11.7261C13.3057 12.3547 15.0747 12.7456 16.9243 12.8584L16.9243 16.9243L10.9806 16.9243ZM16.9243 25.5073L16.9243 32.9782C16.5536 32.8291 16.1788 32.6115 15.8081 32.3173C14.9538 31.6444 14.1278 30.5967 13.4266 29.2911C12.9833 28.461 12.5925 27.5463 12.258 26.559C13.757 25.9707 15.3165 25.6202 16.9243 25.5073ZM16.9243 10.5978C16.1248 10.5421 15.3343 10.4257 14.5527 10.2487C13.7711 10.0717 13.0075 9.83615 12.2621 9.54208C12.5965 8.55079 12.9833 7.63608 13.4306 6.81001C14.1318 5.50442 14.9538 4.45673 15.8121 3.78379C16.1828 3.49366 16.5536 3.27203 16.9283 3.12293L16.9283 10.5978L16.9243 10.5978ZM12.1573 4.09004C12.3064 4.02959 12.4514 3.96915 12.6005 3.91273C11.6576 5.174 10.8477 6.74957 10.215 8.56289C9.3688 8.07933 8.56691 7.51519 7.82144 6.87851C9.10285 5.70187 10.5575 4.76701 12.1573 4.09004ZM4.09004 12.1573C4.64612 10.8436 5.37951 9.6267 6.27408 8.52259C7.27744 9.38895 8.37752 10.1465 9.5582 10.7751C9.09076 12.665 8.80063 14.7402 8.72407 16.9243L2.9416 16.9243C3.06249 15.2762 3.44933 13.6764 4.09004 12.1573ZM2.9416 19.1809L8.72407 19.1809C8.80063 21.3649 9.09076 23.4401 9.5582 25.33C8.97064 25.6432 8.40234 25.9881 7.85328 26.3646C7.30422 26.7412 6.77782 27.1472 6.27408 27.5826C5.3018 26.3858 4.5314 25.0708 3.9629 23.6375C3.3944 22.2042 3.05396 20.7187 2.9416 19.1809ZM12.1573 32.0151C10.5575 31.3381 9.10285 30.4033 7.82144 29.2266C8.56691 28.59 9.3688 28.0298 10.215 27.5423C10.8477 29.3556 11.6576 30.9312 12.6005 32.1924C12.4514 32.136 12.3023 32.0756 12.1573 32.0151ZM23.9479 32.0151C23.7988 32.0756 23.6537 32.136 23.5046 32.1924C24.4475 30.9312 25.2575 29.3556 25.8901 27.5423C26.7364 28.0258 27.5382 28.59 28.2837 29.2266C27.6466 29.8125 26.964 30.3395 26.236 30.8077C25.508 31.2759 24.7453 31.6784 23.9479 32.0151Z" fill-rule="nonzero" transform="matrix(1 0 0 1 0 0)" fill="rgb(0, 0, 0)" fill-opacity="0.8784"/>
	</g>
</svg>
