<?xml version="1.0" encoding="utf-8" ?>
<svg xmlns="http://www.w3.org/2000/svg" xmlns:xlink="http://www.w3.org/1999/xlink" width="30.3025" height="32.0756" viewBox="0 0 30.3025 32.0756">
	<path d="M29.1139 26.1762C28.7339 25.276 28.2706 24.4208 27.7242 23.6106C27.1778 22.8005 26.5584 22.0505 25.8661 21.3609C25.1759 20.6692 24.4257 20.0502 23.6156 19.5038C22.8056 18.9574 21.9506 18.4938 21.0507 18.113C21.0346 18.105 21.0185 18.1009 21.0024 18.0929C23.5128 16.2796 25.1448 13.3259 25.1448 9.99339C25.1448 4.47285 20.6719 0 15.1514 0C9.63085 0 5.158 4.47285 5.158 9.99339C5.158 13.3259 6.78998 16.2796 9.30042 18.0969C9.2843 18.105 9.26818 18.109 9.25206 18.117C7.44681 18.8786 5.82691 19.9707 4.4367 21.3649C3.74504 22.0551 3.12602 22.8052 2.57963 23.6153C2.03325 24.4254 1.56965 25.2804 1.18885 26.1803C0.814744 27.0612 0.527722 27.9697 0.32778 28.9057C0.127838 29.8417 0.0186176 30.7882 0.00011744 31.7451C-0.00214855 31.8357 0.0283585 31.9134 0.0916386 31.9783C0.154919 32.0432 0.231867 32.0756 0.322485 32.0756L2.74024 32.0756C2.91754 32.0756 3.05858 31.9345 3.06261 31.7612C3.1432 28.6504 4.39237 25.737 6.60059 23.5288C8.88537 21.244 11.9197 19.9868 15.1514 19.9868C18.3831 19.9868 21.4174 21.244 23.7022 23.5288C25.9104 25.737 27.1596 28.6504 27.2402 31.7612C27.2442 31.9386 27.3852 32.0756 27.5625 32.0756L29.9803 32.0756C30.0709 32.0756 30.1479 32.0432 30.2111 31.9783C30.2744 31.9134 30.3049 31.8357 30.3027 31.7451C30.2624 29.819 29.8634 27.9452 29.1139 26.1762ZM15.1514 16.9243C13.3018 16.9243 11.561 16.203 10.2514 14.8934C8.94179 13.5838 8.22049 11.843 8.22049 9.99339C8.22049 8.14381 8.94179 6.40302 10.2514 5.0934C11.561 3.78379 13.3018 3.06249 15.1514 3.06249C17.001 3.06249 18.7418 3.78379 20.0514 5.0934C21.361 6.40302 22.0823 8.14381 22.0823 9.99339C22.0823 11.843 21.361 13.5838 20.0514 14.8934C18.7418 16.203 17.001 16.9243 15.1514 16.9243Z" fill-rule="nonzero" transform="matrix(1 0 0 1 8.58307e-05 -3.62396e-05)" fill="rgb(114, 46, 209)"/>
</svg>
