<?xml version="1.0" encoding="utf-8" ?>
<svg xmlns="http://www.w3.org/2000/svg" xmlns:xlink="http://www.w3.org/1999/xlink" width="29.6577" height="29.6577" viewBox="0 0 29.6577 29.6577">
	<path d="M12.8947 0L0.644735 0C0.290131 0 0 0.290131 0 0.644735L0 12.8947C0 13.2493 0.290131 13.5394 0.644735 13.5394L12.8947 13.5394C13.2493 13.5394 13.5394 13.2493 13.5394 12.8947L13.5394 0.644735C13.5394 0.290131 13.2493 0 12.8947 0ZM10.7993 10.7993L2.74012 10.7993L2.74012 2.74012L10.7993 2.74012L10.7993 10.7993ZM29.0131 0L16.7631 0C16.4085 0 16.1184 0.290131 16.1184 0.644735L16.1184 12.8947C16.1184 13.2493 16.4085 13.5394 16.7631 13.5394L29.0131 13.5394C29.3677 13.5394 29.6578 13.2493 29.6578 12.8947L29.6578 0.644735C29.6578 0.290131 29.3677 0 29.0131 0ZM26.9177 10.7993L18.8585 10.7993L18.8585 2.74012L26.9177 2.74012L26.9177 10.7993ZM12.8947 16.1184L0.644735 16.1184C0.290131 16.1184 0 16.4085 0 16.7631L0 29.0131C0 29.3677 0.290131 29.6578 0.644735 29.6578L12.8947 29.6578C13.2493 29.6578 13.5394 29.3677 13.5394 29.0131L13.5394 16.7631C13.5394 16.4085 13.2493 16.1184 12.8947 16.1184ZM10.7993 26.9177L2.74012 26.9177L2.74012 18.8585L10.7993 18.8585L10.7993 26.9177ZM29.0131 16.1184L16.7631 16.1184C16.4085 16.1184 16.1184 16.4085 16.1184 16.7631L16.1184 29.0131C16.1184 29.3677 16.4085 29.6578 16.7631 29.6578L29.0131 29.6578C29.3677 29.6578 29.6578 29.3677 29.6578 29.0131L29.6578 16.7631C29.6578 16.4085 29.3677 16.1184 29.0131 16.1184ZM26.9177 26.9177L18.8585 26.9177L18.8585 18.8585L26.9177 18.8585L26.9177 26.9177Z" fill-rule="nonzero" transform="matrix(1 0 0 1 -0.000202894 4.12464e-05)" fill="rgb(0, 0, 0)" fill-opacity="0.8784"/>
</svg>
