<?xml version="1.0" encoding="utf-8" ?>
<svg xmlns="http://www.w3.org/2000/svg" xmlns:xlink="http://www.w3.org/1999/xlink" width="32.2366" height="32.2407" viewBox="0 0 32.2366 32.2407">
	<path d="M30.8304 5.10549L26.5389 0.818007C26.015 0.29416 25.3139 0 24.5725 0C23.831 0 23.1299 0.290131 22.606 0.818007L17.9841 5.43189C17.4602 5.95574 17.1661 6.66092 17.1661 7.40236C17.1661 8.14784 17.4562 8.84496 17.9841 9.37283L21.5946 12.9874C21.1833 13.9456 20.6849 14.8561 20.0993 15.7189C19.5138 16.5816 18.8517 17.381 18.113 18.117C16.6342 19.604 14.9055 20.7766 12.9874 21.6067L9.37686 17.9921C8.85301 17.4683 8.15186 17.1741 7.41042 17.1741C7.04102 17.1728 6.6858 17.243 6.34473 17.3849C6.00367 17.5268 5.70342 17.7292 5.44398 17.9921L0.818007 22.606C0.29416 23.1299 0 23.835 0 24.5765C0 25.322 0.290131 26.0191 0.818007 26.547L5.10549 30.8344C6.00006 31.729 7.23312 32.2408 8.49841 32.2408C8.76033 32.2408 9.0142 32.2206 9.27209 32.1763C14.6073 31.2978 19.9022 28.457 24.1776 24.1856C28.4489 19.9062 31.2858 14.6113 32.1723 9.27209C32.4261 7.75697 31.9184 6.19751 30.8304 5.10549ZM29.3153 8.79257C28.5295 13.5435 25.9748 18.2823 22.1265 22.1305C18.2782 25.9788 13.5435 28.5335 8.79257 29.3193C8.19619 29.4201 7.58369 29.2186 7.1485 28.7874L2.93757 24.5765L7.40236 20.1077L12.2298 24.9432L12.2661 24.9794L13.1365 24.6571C15.8071 23.6752 18.1483 22.178 20.16 20.1656C22.1717 18.1532 23.668 15.8115 24.649 13.1405L24.9714 12.2701L20.1036 7.40639L24.5684 2.93758L28.7794 7.1485C29.2145 7.58369 29.416 8.19619 29.3153 8.79257Z" fill-rule="nonzero" transform="matrix(1 0 0 1 8.58307e-05 -3.62396e-05)" fill="rgb(0, 0, 0)" fill-opacity="0.8784"/>
</svg>
