<?xml version="1.0" encoding="utf-8" ?>
<svg xmlns="http://www.w3.org/2000/svg" xmlns:xlink="http://www.w3.org/1999/xlink" width="32.2371" height="32.2377" viewBox="0 0 32.2371 32.2377">
	<path d="M28.6989 23.6909C28.1946 23.1862 27.65 22.7294 27.0653 22.3207C26.4805 21.9119 25.8645 21.5573 25.2173 21.257C27.0427 19.7782 28.2073 17.5216 28.2073 14.991C28.2073 10.5262 24.4839 6.86334 20.0191 6.93184C15.6228 7.00034 12.0808 10.5826 12.0808 14.991C12.0808 17.5216 13.2494 19.7782 15.0708 21.257C14.4235 21.5571 13.8074 21.9115 13.2226 22.3203C12.6378 22.7291 12.0934 23.186 11.5892 23.6909C9.38907 25.8951 8.1399 28.8045 8.0593 31.9072C8.05704 31.9978 8.08755 32.0756 8.15083 32.1404C8.21411 32.2053 8.29105 32.2377 8.38167 32.2377L10.6382 32.2377C10.8115 32.2377 10.9566 32.1007 10.9606 31.9274C11.0372 29.5902 11.9841 27.4022 13.6483 25.742C14.5084 24.8773 15.5018 24.2117 16.6286 23.7451C17.7554 23.2784 18.9285 23.0468 20.1481 23.0502C22.6021 23.0502 24.9111 24.0052 26.6478 25.742C28.308 27.4022 29.255 29.5902 29.3356 31.9274C29.3396 32.1007 29.4846 32.2377 29.6579 32.2377L31.9145 32.2377C32.0051 32.2377 32.0821 32.2053 32.1453 32.1404C32.2086 32.0756 32.2391 31.9978 32.2369 31.9072C32.1563 28.8045 30.9071 25.8951 28.6989 23.6909ZM20.1481 20.1489C18.77 20.1489 17.4724 19.613 16.5013 18.6378C16.0089 18.1493 15.6316 17.584 15.3693 16.942C15.1071 16.2999 14.9807 15.6321 14.9902 14.9386C15.0023 13.6169 15.5302 12.3396 16.4529 11.3926C17.42 10.4013 18.7135 9.84927 20.0957 9.83315C21.4617 9.82106 22.7875 10.353 23.7626 11.308C24.762 12.2872 25.31 13.5968 25.31 14.991C25.31 16.3691 24.7741 17.6626 23.7989 18.6378C23.3157 19.1233 22.7577 19.497 22.1248 19.759C21.4919 20.0209 20.833 20.1509 20.1481 20.1489ZM10.054 16.0548C10.0177 15.7043 9.99754 15.3497 9.99754 14.991C9.99754 14.3503 10.058 13.7257 10.1708 13.1173C10.199 12.9722 10.1225 12.8231 9.98948 12.7627C9.44145 12.5169 8.93776 12.1784 8.50256 11.7512C7.98412 11.2485 7.58917 10.6626 7.31772 9.99346C7.04626 9.32429 6.92139 8.62881 6.94311 7.907C6.97937 6.6135 7.49919 5.38448 8.40585 4.45767C9.40116 3.43819 10.739 2.8821 12.1614 2.89822C13.4469 2.91031 14.688 3.40595 15.6269 4.2844C15.9452 4.58259 16.2192 4.91302 16.4489 5.26762C16.5295 5.39254 16.6867 5.44492 16.8237 5.39657C17.5329 5.15076 18.2824 4.97749 19.052 4.8969C19.2777 4.87272 19.4066 4.63094 19.3059 4.42947C17.9963 1.83844 15.3206 0.0493006 12.2259 0.000945358C7.75708 -0.0675576 4.03374 3.59534 4.03374 8.0561C4.03374 10.5867 5.19829 12.8433 7.0237 14.3221C5.74229 14.9145 4.56162 15.7325 3.5381 16.756C1.32988 18.9602 0.0807093 21.8695 0.00011744 24.9763C-0.00214855 25.0669 0.0283585 25.1447 0.0916386 25.2095C0.154919 25.2744 0.231867 25.3068 0.322485 25.3068L2.58309 25.3068C2.75636 25.3068 2.90142 25.1698 2.90545 24.9965C2.98202 22.6593 3.92897 20.4713 5.59319 18.8111C6.77789 17.6264 8.22855 16.8043 9.81217 16.4054C9.96933 16.3651 10.0741 16.216 10.054 16.0548Z" fill-rule="nonzero" transform="matrix(1 0 0 1 2.98023e-06 3.18289e-05)" fill="rgb(0, 0, 0)" fill-opacity="0.8784"/>
</svg>
