<?xml version="1.0" encoding="utf-8" ?>
<svg xmlns="http://www.w3.org/2000/svg" xmlns:xlink="http://www.w3.org/1999/xlink" width="36.1052" height="36.1052" viewBox="0 0 36.1052 36.1052">
	<defs>
		<clipPath id="clipPath9410125607">
			<path d="M0 0L36.1052 0L36.1052 36.1052L0 36.1052L0 0Z" fill-rule="nonzero" transform="matrix(1 0 0 1 0 0)"/>
		</clipPath>
	</defs>
	<g clip-path="url(#clipPath9410125607)">
		<path d="M15.3936 0L13.5037 0C13.0927 0 12.7018 0.19745 12.46 0.535935L6.12549 9.32044L3.25642 5.33921C3.01464 5.00475 2.6278 4.80327 2.21276 4.80327L0.322878 4.80327C0.0609542 4.80327 -0.0921698 5.10146 0.0609542 5.31503L5.08183 12.2782C5.33741 12.6349 5.68463 12.8133 6.12348 12.8133C6.56232 12.8133 6.90954 12.6349 7.16513 12.2782L15.6514 0.511759C15.8086 0.298191 15.6555 0 15.3936 0Z" fill-rule="nonzero" transform="matrix(1 0 0 1 10.1944 11.6455)" fill="rgb(0, 0, 0)" fill-opacity="0.8784"/>
		<path d="M18.0526 0C8.08336 0 0 8.08336 0 18.0526C0 28.0218 8.08336 36.1052 18.0526 36.1052C28.0218 36.1052 36.1052 28.0218 36.1052 18.0526C36.1052 8.08336 28.0218 0 18.0526 0ZM18.0526 33.0427C9.77579 33.0427 3.06249 26.3294 3.06249 18.0526C3.06249 9.77579 9.77579 3.06249 18.0526 3.06249C26.3294 3.06249 33.0427 9.77579 33.0427 18.0526C33.0427 26.3294 26.3294 33.0427 18.0526 33.0427Z" fill-rule="nonzero" transform="matrix(1 0 0 1 0 0)" fill="rgb(0, 0, 0)" fill-opacity="0.8784"/>
	</g>
</svg>
