<?xml version="1.0" encoding="utf-8" ?>
<svg xmlns="http://www.w3.org/2000/svg" xmlns:xlink="http://www.w3.org/1999/xlink" width="15.3271" height="14.4271" viewBox="0 0 15.3271 14.4271">
	<path d="M5.36866 3.23287L6.88296 3.23287L6.88296 10.165C6.88296 10.2552 6.95672 10.3289 7.04688 10.3289L8.27635 10.3289C8.36651 10.3289 8.44028 10.2552 8.44028 10.165L8.44028 3.23287L9.95867 3.23287C10.096 3.23287 10.1718 3.07508 10.0878 2.96853L7.79276 0.0628971C7.75994 0.0209657 7.71691 0 7.66366 0C7.61042 0 7.56739 0.0209657 7.53457 0.0628971L5.23957 2.96648C5.15556 3.07508 5.23137 3.23287 5.36866 3.23287ZM15.1634 9.55026L13.9339 9.55026C13.8438 9.55026 13.77 9.62403 13.77 9.71419L13.77 12.8698L1.55732 12.8698L1.55732 9.71419C1.55732 9.62403 1.48355 9.55026 1.39339 9.55026L0.163929 9.55026C0.073768 9.55026 0 9.62403 0 9.71419L0 13.7714C0 14.1341 0.293023 14.4271 0.655715 14.4271L14.6716 14.4271C15.0343 14.4271 15.3273 14.1341 15.3273 13.7714L15.3273 9.71419C15.3273 9.62403 15.2536 9.55026 15.1634 9.55026Z" fill-rule="nonzero" transform="matrix(1 0 0 1 0.000225902 -0.000103116)" fill="rgb(0, 0, 0)" fill-opacity="0.8784"/>
</svg>
